<svg width="40" height="41" viewBox="0 0 40 41" fill="none" xmlns="http://www.w3.org/2000/svg">
<path d="M40 20.4093C40 9.36371 31.0456 0.409332 20 0.409332C8.95437 0.409332 0 9.36371 0 20.4093C0 30.3918 7.31375 38.6661 16.875 40.1664V26.1906H11.7969V20.4093H16.875V16.0031C16.875 10.9906 19.8609 8.22183 24.4294 8.22183C26.6175 8.22183 28.9062 8.61246 28.9062 8.61246V13.5343H26.3844C23.8998 13.5343 23.125 15.0761 23.125 16.6578V20.4093H28.6719L27.7852 26.1906H23.125V40.1664C32.6862 38.6661 40 30.392 40 20.4093Z" fill="#1877F2"/>
<path d="M27.7852 26.1906L28.6719 20.4093H23.125V16.6578C23.125 15.0759 23.8998 13.5343 26.3844 13.5343H28.9062V8.61246C28.9062 8.61246 26.6175 8.22183 24.4292 8.22183C19.8609 8.22183 16.875 10.9906 16.875 16.0031V20.4093H11.7969V26.1906H16.875V40.1664C17.9088 40.3283 18.9536 40.4096 20 40.4093C21.0464 40.4096 22.0912 40.3283 23.125 40.1664V26.1906H27.7852Z" fill="white"/>
</svg>
