<svg width="40" height="41" viewBox="0 0 40 41" fill="none" xmlns="http://www.w3.org/2000/svg">
<path d="M13.7351 1.11885C9.60871 2.55034 6.05011 5.26734 3.58201 8.87078C1.11391 12.4742 -0.133594 16.7742 0.0227312 21.139C0.179057 25.5038 1.73097 29.7035 4.45053 33.1212C7.17009 36.5388 10.9139 38.9943 15.1322 40.1269C18.552 41.0093 22.1349 41.0481 25.573 40.2398C28.6876 39.5402 31.5671 38.0438 33.9296 35.897C36.3884 33.5944 38.1732 30.6652 39.0919 27.4243C40.0906 23.8999 40.2683 20.1935 39.6114 16.5898H20.4074V24.5559H31.5291C31.3068 25.8265 30.8305 27.0391 30.1286 28.1213C29.4268 29.2035 28.5138 30.1329 27.4444 30.854C26.0863 31.7524 24.5554 32.3568 22.9499 32.6286C21.3397 32.928 19.6881 32.928 18.0779 32.6286C16.4459 32.2912 14.9021 31.6176 13.5447 30.6508C11.3641 29.1072 9.72678 26.9143 8.86635 24.3849C7.99138 21.8083 7.99138 19.0148 8.86635 16.4381C9.47882 14.632 10.4913 12.9875 11.8283 11.6275C13.3582 10.0425 15.2952 8.90948 17.4267 8.35285C19.5582 7.79622 21.8018 7.83744 23.9114 8.47198C25.5594 8.97787 27.0664 9.86175 28.3123 11.0532C29.5663 9.80559 30.8182 8.5548 32.0679 7.30078C32.7132 6.62644 33.4166 5.98437 34.0522 5.29391C32.1504 3.52411 29.9181 2.14699 27.4831 1.24146C23.049 -0.368581 18.1972 -0.41185 13.7351 1.11885Z" fill="white"/>
<path d="M13.7351 1.11887C18.1969 -0.412879 23.0486 -0.370749 27.4831 1.23825C29.9185 2.14993 32.1498 3.53368 34.049 5.31005C33.4037 6.00052 32.7229 6.64581 32.0647 7.31692C30.8128 8.56664 29.562 9.81206 28.3123 11.0532C27.0664 9.86176 25.5594 8.97788 23.9114 8.472C21.8025 7.83522 19.559 7.79162 17.4269 8.34598C15.2949 8.90033 13.3567 10.0312 11.8251 11.6146C10.4881 12.9747 9.47563 14.6191 8.86316 16.4252L2.17468 11.2468C4.56875 6.49921 8.71393 2.86769 13.7351 1.11887Z" fill="#E33629"/>
<path d="M0.400073 16.3768C0.759571 14.5951 1.35641 12.8697 2.17463 11.2467L8.86311 16.4381C7.98814 19.0148 7.98814 21.8082 8.86311 24.3849C6.63469 26.1057 4.4052 27.8351 2.17463 29.5731C0.126309 25.4959 -0.498394 20.8503 0.400073 16.3768Z" fill="#F8BD00"/>
<path d="M20.4074 16.5866H39.6114C40.2683 20.1903 40.0906 23.8967 39.0919 27.4211C38.1732 30.662 36.3884 33.5912 33.9296 35.8938C31.7711 34.2096 29.6029 32.5383 27.4444 30.854C28.5145 30.1322 29.4279 29.2017 30.1298 28.1184C30.8317 27.0351 31.3076 25.8212 31.5291 24.5495H20.4074C20.4042 21.8974 20.4074 19.242 20.4074 16.5866Z" fill="#587DBD"/>
<path d="M2.17139 29.5731C4.40195 27.8523 6.63145 26.1229 8.85986 24.3849C9.722 26.9151 11.3617 29.1082 13.5447 30.6508C14.9063 31.6131 16.4535 32.2812 18.0876 32.6125C19.6978 32.9119 21.3494 32.9119 22.9595 32.6125C24.565 32.3407 26.0959 31.7362 27.454 30.8379C29.6125 32.5221 31.7807 34.1934 33.9392 35.8776C31.5771 38.0256 28.6976 39.5232 25.5827 40.2237C22.1446 41.032 18.5616 40.9932 15.1418 40.1108C12.4371 39.3886 9.91064 38.1155 7.72092 36.3713C5.40322 34.5312 3.51023 32.2123 2.17139 29.5731Z" fill="#319F43"/>
</svg>
