<svg width="30" height="30" viewBox="0 0 30 30" fill="none" xmlns="http://www.w3.org/2000/svg">
<path d="M14.2314 1.60195L14.2313 1.6019C14.0595 1.43 13.8264 1.33339 13.5833 1.33331L14.2314 1.60195ZM14.2314 1.60195L28.398 15.7686C28.398 15.7686 28.398 15.7686 28.398 15.7686C28.5699 15.9405 28.6664 16.1736 28.6664 16.4166C28.6664 16.6597 28.5699 16.8928 28.398 17.0647C28.398 17.0647 28.398 17.0647 28.398 17.0647L17.0647 28.398L17.0637 28.399C16.9789 28.4843 16.8781 28.552 16.767 28.5982C16.656 28.6443 16.5369 28.6681 16.4167 28.6681C16.2964 28.6681 16.1773 28.6443 16.0663 28.5982C15.9553 28.552 15.8544 28.4843 15.7697 28.399L15.7686 28.398L1.60198 14.2313L1.60104 14.2304C1.42976 14.06 1.33334 13.8281 1.33334 13.5833V6.50009C1.33334 6.50005 1.33334 6.50002 1.33334 6.49998C1.33342 6.25692 1.43003 6.02385 1.60193 5.852L1.60198 5.85195L5.85198 1.60195L5.85203 1.6019M14.2314 1.60195L5.85203 1.6019M5.85203 1.6019C6.02388 1.43 6.25695 1.33339 6.50001 1.33331C6.50005 1.33331 6.50008 1.33331 6.50012 1.33331M5.85203 1.6019L6.50012 1.33331M6.50012 1.33331H13.5832H6.50012ZM8.74035 12.4716C9.09218 12.6097 9.46807 12.6759 9.8459 12.6665C10.585 12.6481 11.2876 12.3414 11.8038 11.8121C12.3199 11.2827 12.6087 10.5726 12.6085 9.83326C12.6083 9.09393 12.319 8.38396 11.8026 7.85493C11.2861 7.3259 10.5833 7.0197 9.84418 7.00171C9.46635 6.99251 9.09049 7.05901 8.73875 7.19727C8.38701 7.33553 8.06648 7.54277 7.79604 7.80678C7.5256 8.0708 7.31072 8.38625 7.16405 8.73457C7.01737 9.0829 6.94187 9.45704 6.94198 9.83498C6.9421 10.2129 7.01783 10.587 7.16471 10.9353C7.3116 11.2835 7.52668 11.5988 7.79727 11.8627C8.06787 12.1265 8.38852 12.3336 8.74035 12.4716Z" fill="#EF2A39" stroke="white"/>
</svg>
