<svg width="40" height="33" viewBox="0 0 40 33" fill="none" xmlns="http://www.w3.org/2000/svg">
<path d="M40 4.00386C38.5022 4.6675 36.9134 5.10306 35.2866 5.29604C36.9811 4.28042 38.2822 2.67214 38.8948 0.755887C37.284 1.71175 35.5216 2.38525 33.6838 2.74729C32.1867 1.15245 30.0541 0.155731 27.6936 0.155731C23.1614 0.155731 19.4869 3.83011 19.4869 8.36198C19.4869 9.00526 19.5595 9.63151 19.6994 10.2323C12.8791 9.88995 6.83219 6.62292 2.78453 1.65792C2.07828 2.86995 1.67359 4.27979 1.67359 5.78354C1.67359 8.63073 3.1225 11.1425 5.32438 12.6142C4.02116 12.5734 2.74661 12.2214 1.60719 11.5876C1.60677 11.622 1.60661 11.6564 1.60672 11.6909C1.60672 15.667 4.43547 18.9839 8.18953 19.7378C6.98107 20.0664 5.71349 20.1145 4.48359 19.8784C5.52781 23.1387 8.55859 25.5112 12.1495 25.5776C9.34094 27.7785 5.80234 29.0906 1.95766 29.0906C1.29516 29.0906 0.642031 29.0517 0 28.9759C3.63172 31.3043 7.94531 32.6629 12.5797 32.6629C27.6745 32.6629 35.9287 20.1581 35.9287 9.3137C35.9287 8.95776 35.9208 8.60386 35.905 8.25198C37.5115 7.09042 38.8982 5.6519 40 4.00386Z" fill="#55ACEE"/>
</svg>
